<svg xmlns="http://www.w3.org/2000/svg" width="69" height="69"><path fill="#fff" d="M52.458 10.366L25.863 36.008v7.115h7.115L58.62 16.53zM52.513.008c1.1 0 2.201.419 3.041 1.259L67.72 13.433a4.302 4.302 0 010 6.083l-31.077 32.23H17.24V32.344L49.47 1.266A4.287 4.287 0 0152.513.008zm7.842 47.426a4.311 4.311 0 018.623 0V64.68a4.312 4.312 0 01-4.311 4.312H4.305A4.312 4.312 0 01-.006 64.68V4.318c0-2.38 1.93-4.312 4.311-4.312h17.247a4.312 4.312 0 010 8.624h-10.78c-1.19 0-2.155.965-2.155 2.156v47.427c0 1.191.965 2.157 2.156 2.157h47.426a2.157 2.157 0 002.156-2.157z"/></svg>