<svg xmlns="http://www.w3.org/2000/svg" width="65" height="65"><defs><clipPath id="a"><path fill="#fff" d="M32.5 0C50.45 0 65 14.55 65 32.5S50.45 65 32.5 65 0 50.45 0 32.5 14.55 0 32.5 0z"/></clipPath></defs><path fill="gray" d="M32.5 0C50.45 0 65 14.55 65 32.5S50.45 65 32.5 65 0 50.45 0 32.5 14.55 0 32.5 0z"/><path fill="none" stroke="#fff" stroke-linecap="round" stroke-linejoin="round" stroke-miterlimit="20" stroke-width="2" d="M32.5 0C50.45 0 65 14.55 65 32.5S50.45 65 32.5 65 0 50.45 0 32.5 14.55 0 32.5 0z" clip-path="url(&quot;#a&quot;)"/><text dominant-baseline="text-before-edge" style="text-transform:uppercase" fill="#f5f5f5" font-family="'FontAwesome','FontAwesome'" font-size="20" font-style="none" font-weight="400" transform="translate(24 26)"><tspan style="font-kerning:normal" letter-spacing="-1"></tspan></text></svg>