<svg xmlns="http://www.w3.org/2000/svg" width="133" height="133"><path fill="#2e85aa" d="M66.5 0C103.227 0 133 29.773 133 66.5c0 36.727-29.773 66.5-66.5 66.5C29.773 133 0 103.227 0 66.5 0 29.773 29.773 0 66.5 0z"/><path fill="#f1fbff" d="M61.378 56.24c4.648 0 8.43 3.8 8.43 8.47 0 1.76-.54 3.454-1.563 4.897l-.83 1.171-1.165.834a8.33 8.33 0 01-4.872 1.57c-4.648 0-8.43-3.8-8.43-8.471 0-4.672 3.782-8.472 8.43-8.472zm-12.644 8.47c0 7.02 5.66 12.708 12.644 12.708 2.73 0 5.25-.878 7.316-2.355L78.848 85.27a2.1 2.1 0 002.986 0 2.128 2.128 0 000-3L71.679 72.064a12.681 12.681 0 002.344-7.353c0-7.018-5.662-12.708-12.645-12.708s-12.644 5.69-12.644 12.708z"/></svg>