<svg xmlns="http://www.w3.org/2000/svg" width="133" height="133"><path fill="#2e85aa" d="M66.5 0C103.227 0 133 29.773 133 66.5c0 36.727-29.773 66.5-66.5 66.5C29.773 133 0 103.227 0 66.5 0 29.773 29.773 0 66.5 0z"/><path fill="#fff" d="M63.196 56.345c5.826 0 10.565 4.75 10.565 10.59s-4.74 10.59-10.534 10.59l-.126-.008a19.036 19.036 0 00-.35-.02l-.712-.03-.682.204-7.085 2.122.86-3.392.473-1.865-1.094-1.584a10.533 10.533 0 01-1.88-6.017c0-5.84 4.74-10.59 10.565-10.59 5.826 0 0 0 0 0zm-14.803 10.59c0 3.132.975 6.032 2.63 8.426l-2.696 10.635 14.247-4.267c.208.008.412.031.622.031C71.372 81.76 78 75.123 78 66.935c0-8.188-6.628-14.826-14.804-14.826s-14.803 6.638-14.803 14.826z"/></svg>