<svg xmlns="http://www.w3.org/2000/svg" width="133" height="133"><path fill="#2e85aa" d="M66.5 0C103.227 0 133 29.773 133 66.5c0 36.727-29.773 66.5-66.5 66.5C29.773 133 0 103.227 0 66.5 0 29.773 29.773 0 66.5 0z"/><path fill="#fff" d="M74.804 57.092L61.728 69.688v3.495h3.498l12.608-13.064zm.027-5.089c.541 0 1.083.207 1.495.62l5.981 5.975a2.112 2.112 0 010 2.988l-15.28 15.832h-9.539v-9.53L73.335 52.62a2.111 2.111 0 011.496-.618zM78.687 75.3a2.12 2.12 0 014.24 0v8.472a2.12 2.12 0 01-2.12 2.119H51.129a2.12 2.12 0 01-2.12-2.119v-29.65a2.12 2.12 0 012.12-2.119h8.48a2.12 2.12 0 110 4.236h-5.3a1.06 1.06 0 00-1.06 1.059v23.298c0 .585.474 1.059 1.06 1.059h23.318a1.06 1.06 0 001.06-1.06z"/></svg>